<?xml version="1.0" encoding="UTF-8" standalone="no"?>
<!DOCTYPE svg PUBLIC "-//W3C//DTD SVG 1.1//EN" "http://www.w3.org/Graphics/SVG/1.1/DTD/svg11.dtd">
<svg width="100%" height="100%" viewBox="0 0 109 24" version="1.1" xmlns="http://www.w3.org/2000/svg" xmlns:xlink="http://www.w3.org/1999/xlink" xml:space="preserve" style="fill-rule:evenodd;clip-rule:evenodd;stroke-linejoin:round;stroke-miterlimit:1.41421;">
    <g>
        <path d="M2.184,8.386L0.35,8.386L0.35,5.773L2.184,5.773C2.403,6.484 2.815,6.839 3.42,6.839C3.858,6.839 4.076,6.663 4.076,6.312C4.076,6.128 4,5.976 3.848,5.855C3.684,5.722 3.338,5.538 2.811,5.304C2.147,5.003 1.658,4.744 1.346,4.525C1.053,4.326 0.803,4.05 0.596,3.699C0.389,3.351 0.285,2.966 0.285,2.544C0.285,1.787 0.531,1.195 1.024,0.769C1.512,0.343 2.113,0.13 2.828,0.13C3.543,0.13 4.149,0.333 4.645,0.74L4.645,0.236L6.49,0.236L6.49,2.556L4.668,2.556C4.445,1.915 4.051,1.595 3.485,1.595C3.086,1.595 2.887,1.765 2.887,2.105C2.887,2.269 2.944,2.392 3.057,2.474C3.166,2.56 3.52,2.749 4.117,3.042C4.918,3.441 5.453,3.732 5.723,3.915C5.86,4.005 5.999,4.131 6.142,4.293C6.284,4.455 6.403,4.622 6.496,4.794C6.711,5.177 6.819,5.591 6.819,6.037C6.819,6.72 6.565,7.298 6.057,7.771C5.549,8.251 4.908,8.492 4.135,8.492C3.416,8.492 2.766,8.279 2.184,7.853L2.184,8.386Z" style="fill:rgb(255,0,0);fill-rule:nonzero;"/>
        <path d="M14.102,8.386L9.526,8.386L9.526,6.435L10.229,6.435L10.229,2.187L9.291,2.187L9.291,3.669L7.762,3.669L7.762,0.236L15.842,0.236L15.842,3.669L14.313,3.669L14.313,2.187L13.381,2.187L13.381,6.435L14.102,6.435L14.102,8.386Z" style="fill:rgb(255,0,0);fill-rule:nonzero;"/>
        <path d="M20.647,2.023L20.647,3.576L20.998,3.576C21.459,3.576 21.772,3.562 21.936,3.535C22.112,3.507 22.26,3.429 22.381,3.3C22.502,3.179 22.563,3.013 22.563,2.802C22.563,2.591 22.502,2.423 22.381,2.298C22.26,2.169 22.106,2.091 21.918,2.064C21.738,2.037 21.41,2.023 20.934,2.023L20.647,2.023ZM21.262,8.386L16.832,8.386L16.832,6.435L17.494,6.435L17.494,2.187L16.832,2.187L16.832,0.236L21.262,0.236C21.66,0.236 22.029,0.243 22.369,0.256C22.709,0.27 23,0.289 23.242,0.315C23.485,0.34 23.707,0.374 23.91,0.417C24.481,0.538 24.944,0.802 25.299,1.208C25.658,1.622 25.838,2.111 25.838,2.673C25.838,3.095 25.729,3.478 25.51,3.822C25.291,4.162 25.004,4.412 24.649,4.572L25.774,6.435L26.36,6.435L26.36,8.386L23.424,8.386L21.649,5.058L20.647,5.058L20.647,6.435L21.262,6.435L21.262,8.386Z" style="fill:rgb(255,0,0);fill-rule:nonzero;"/>
        <path d="M30.684,2.304L29.916,4.56L31.375,4.56L30.684,2.304ZM29.916,8.386L26.688,8.386L26.688,6.435L27.309,6.435L28.838,2.187L28.182,2.187L28.182,0.236L34.041,0.236L34.041,2.187L33.385,2.187L34.944,6.435L35.541,6.435L35.541,8.386L31.287,8.386L31.287,6.599L32.002,6.599L31.692,5.574L29.606,5.574L29.248,6.599L29.916,6.599L29.916,8.386Z" style="fill:rgb(255,0,0);fill-rule:nonzero;"/>
        <path d="M40.738,8.386L36.092,8.386L36.092,6.435L36.842,6.435L36.842,2.187L36.092,2.187L36.092,0.236L40.738,0.236L40.738,2.187L39.994,2.187L39.994,6.435L40.738,6.435L40.738,8.386Z" style="fill:rgb(255,0,0);fill-rule:nonzero;"/>
        <path d="M47.869,5.579L47.037,5.579L47.037,4.033L50.682,4.033C50.682,4.923 50.619,5.585 50.494,6.019C50.373,6.437 50.119,6.861 49.733,7.29C49.354,7.716 48.895,8.027 48.356,8.222C47.817,8.417 47.238,8.515 46.621,8.515C45.703,8.515 44.869,8.363 44.119,8.058C43.365,7.761 42.783,7.269 42.373,6.581C41.959,5.906 41.752,5.148 41.752,4.308C41.752,3.038 42.17,2.015 43.006,1.238C43.834,0.46 44.85,0.072 46.053,0.072C47.057,0.072 47.844,0.316 48.414,0.804L48.414,0.236L50.377,0.236L50.377,3.083L48.414,3.083C48.242,2.732 48.019,2.466 47.743,2.287C47.468,2.107 47.147,2.017 46.779,2.017C46.264,2.017 45.885,2.185 45.643,2.521C45.404,2.857 45.285,3.474 45.285,4.372C45.285,5.267 45.41,5.874 45.66,6.195C45.914,6.519 46.283,6.681 46.768,6.681C47.502,6.681 47.869,6.314 47.869,5.579Z" style="fill:rgb(255,0,0);fill-rule:nonzero;"/>
        <path d="M56.125,8.386L51.836,8.386L51.836,6.435L52.451,6.435L52.451,2.187L51.824,2.187L51.824,0.236L56.125,0.236L56.125,2.187L55.604,2.187L55.604,3.429L57.49,3.429L57.49,2.187L56.963,2.187L56.963,0.236L61.258,0.236L61.258,2.187L60.643,2.187L60.643,6.435L61.258,6.435L61.258,8.386L56.963,8.386L56.963,6.435L57.49,6.435L57.49,5.099L55.604,5.099L55.604,6.435L56.125,6.435L56.125,8.386Z" style="fill:rgb(255,0,0);fill-rule:nonzero;"/>
        <path d="M68.594,8.386L64.018,8.386L64.018,6.435L64.721,6.435L64.721,2.187L63.783,2.187L63.783,3.669L62.254,3.669L62.254,0.236L70.334,0.236L70.334,3.669L68.805,3.669L68.805,2.187L67.873,2.187L67.873,6.435L68.594,6.435L68.594,8.386Z" style="fill:rgb(255,0,0);fill-rule:nonzero;"/>
        <path d="M79.692,8.386L75.115,8.386L75.115,6.435L75.819,6.435L75.819,2.187L74.881,2.187L74.881,3.669L73.352,3.669L73.352,0.236L81.432,0.236L81.432,3.669L79.903,3.669L79.903,2.187L78.971,2.187L78.971,6.435L79.692,6.435L79.692,8.386Z" style="fill:rgb(255,0,0);fill-rule:nonzero;"/>
        <path d="M85.428,2.304L84.66,4.56L86.119,4.56L85.428,2.304ZM84.66,8.386L81.432,8.386L81.432,6.435L82.053,6.435L83.582,2.187L82.926,2.187L82.926,0.236L88.785,0.236L88.785,2.187L88.129,2.187L89.688,6.435L90.285,6.435L90.285,8.386L86.031,8.386L86.031,6.599L86.746,6.599L86.436,5.574L84.35,5.574L83.992,6.599L84.66,6.599L84.66,8.386Z" style="fill:rgb(255,0,0);fill-rule:nonzero;"/>
        <path d="M98.6,8.386L90.842,8.386L90.842,6.435L91.574,6.435L91.574,2.187L90.842,2.187L90.842,0.236L95.5,0.236L95.5,2.187L94.727,2.187L94.727,6.435L96.654,6.435L96.654,5.128L98.6,5.128L98.6,8.386Z" style="fill:rgb(255,0,0);fill-rule:nonzero;"/>
        <path d="M108.83,8.386L104.612,8.386L104.612,6.435L105.004,6.435L103.217,4.115L105.291,2.187L104.629,2.187L104.629,0.236L108.643,0.236L108.643,2.187L108.01,2.187L106.346,3.734L108.426,6.435L108.83,6.435L108.83,8.386ZM103.762,8.386L99.344,8.386L99.344,6.435L99.965,6.435L99.965,2.187L99.326,2.187L99.326,0.236L103.762,0.236L103.762,2.187L103.117,2.187L103.117,6.435L103.762,6.435L103.762,8.386Z" style="fill:rgb(255,0,0);fill-rule:nonzero;"/>
        <g>
            <path d="M11.18,23.748L3.356,23.748L3.356,20.412L4.558,20.412L4.558,13.149L2.955,13.149L2.955,15.684L0.341,15.684L0.341,9.813L14.155,9.813L14.155,15.684L11.54,15.684L11.54,13.149L9.948,13.149L9.948,20.412L11.18,20.412L11.18,23.748Z" style="fill:rgb(255,0,0);fill-rule:nonzero;"/>
            <path d="M22.37,12.869L22.37,15.524L22.971,15.524C23.759,15.524 24.293,15.5 24.574,15.453C24.874,15.407 25.128,15.273 25.335,15.053C25.542,14.846 25.645,14.562 25.645,14.201C25.645,13.841 25.542,13.553 25.335,13.34C25.128,13.119 24.864,12.986 24.543,12.939C24.236,12.892 23.675,12.869 22.861,12.869L22.37,12.869ZM23.422,23.748L15.848,23.748L15.848,20.412L16.98,20.412L16.98,13.149L15.848,13.149L15.848,9.813L23.422,9.813C24.103,9.813 24.734,9.825 25.315,9.848C25.896,9.872 26.393,9.905 26.808,9.949C27.222,9.992 27.602,10.05 27.95,10.124C28.925,10.331 29.716,10.782 30.324,11.476C30.938,12.184 31.245,13.019 31.245,13.981C31.245,14.702 31.058,15.357 30.684,15.944C30.31,16.525 29.82,16.953 29.212,17.227L31.135,20.412L32.137,20.412L32.137,23.748L27.118,23.748L24.083,18.058L22.37,18.058L22.37,20.412L23.422,20.412L23.422,23.748Z" style="fill:rgb(255,0,0);fill-rule:nonzero;"/>
            <path d="M39.53,13.35L38.218,17.206L40.712,17.206L39.53,13.35ZM38.218,23.748L32.698,23.748L32.698,20.412L33.76,20.412L36.374,13.149L35.252,13.149L35.252,9.813L45.27,9.813L45.27,13.149L44.148,13.149L46.813,20.412L47.835,20.412L47.835,23.748L40.562,23.748L40.562,20.693L41.784,20.693L41.253,18.94L37.687,18.94L37.076,20.693L38.218,20.693L38.218,23.748Z" style="fill:rgb(255,0,0);fill-rule:nonzero;"/>
            <path d="M55.588,13.149L55.588,20.412L56.099,20.412C57.368,20.412 58.193,20.075 58.574,19.4C58.948,18.726 59.135,17.878 59.135,16.856C59.135,16.241 59.055,15.634 58.894,15.033C58.727,14.432 58.433,13.967 58.013,13.64C57.599,13.313 56.857,13.149 55.789,13.149L55.588,13.149ZM55.588,23.748L49.107,23.748L49.107,20.412L50.199,20.412L50.199,13.149L49.107,13.149L49.107,9.813L55.779,9.813C57.301,9.813 58.544,9.907 59.505,10.094C60.474,10.281 61.385,10.665 62.24,11.246C63.088,11.834 63.756,12.628 64.244,13.63C64.484,14.111 64.668,14.625 64.795,15.173C64.922,15.721 64.985,16.295 64.985,16.896C64.985,18.105 64.728,19.207 64.214,20.202C63.706,21.19 63.062,21.948 62.28,22.476C61.519,23.003 60.684,23.347 59.776,23.508C58.874,23.668 57.478,23.748 55.588,23.748Z" style="fill:rgb(255,0,0);fill-rule:nonzero;"/>
            <path d="M74.672,23.748L66.728,23.748L66.728,20.412L68.01,20.412L68.01,13.149L66.728,13.149L66.728,9.813L74.672,9.813L74.672,13.149L73.4,13.149L73.4,20.412L74.672,20.412L74.672,23.748Z" style="fill:rgb(255,0,0);fill-rule:nonzero;"/>
            <path d="M81.795,23.748L76.075,23.748L76.075,20.412L77.297,20.412L77.297,13.149L76.075,13.149L76.075,9.813L82.676,9.813L87.745,17.096L87.745,13.149L86.613,13.149L86.613,9.813L92.233,9.813L92.233,13.149L91.021,13.149L91.021,23.928L86.433,23.928L80.563,15.503L80.563,20.412L81.795,20.412L81.795,23.748Z" style="fill:rgb(255,0,0);fill-rule:nonzero;"/>
            <path d="M104.385,18.95L102.962,18.95L102.962,16.305L109.193,16.305C109.193,17.828 109.087,18.96 108.873,19.701C108.666,20.415 108.232,21.14 107.57,21.875C106.923,22.603 106.138,23.134 105.216,23.468C104.295,23.801 103.306,23.968 102.251,23.968C100.682,23.968 99.256,23.708 97.974,23.187C96.685,22.68 95.689,21.838 94.988,20.663C94.28,19.507 93.926,18.212 93.926,16.776C93.926,14.605 94.641,12.855 96.07,11.526C97.486,10.197 99.222,9.533 101.279,9.533C102.996,9.533 104.341,9.95 105.317,10.785L105.317,9.813L108.672,9.813L108.672,14.682L105.317,14.682C105.023,14.081 104.64,13.627 104.169,13.32C103.699,13.012 103.149,12.859 102.522,12.859C101.64,12.859 100.992,13.146 100.578,13.72C100.171,14.295 99.967,15.35 99.967,16.886C99.967,18.415 100.181,19.454 100.608,20.001C101.042,20.556 101.673,20.833 102.502,20.833C103.757,20.833 104.385,20.205 104.385,18.95Z" style="fill:rgb(255,0,0);fill-rule:nonzero;"/>
        </g>
    </g>
</svg>
